<svg xmlns="http://www.w3.org/2000/svg" width="320" height="420" viewBox="0 0 320 420" fill="none">
  <rect width="320" height="420" fill="#F3F6F2"/>
  <path d="M72 36h176c12 0 22 10 22 22v304c0 18-14 32-32 32H82c-18 0-32-14-32-32V58c0-12 10-22 22-22z" fill="#E8DCC8" stroke="#1F4F43" stroke-width="3"/>
  <rect x="72" y="255" width="176" height="139" rx="8" fill="#2F6F5E"/>
  <text x="160" y="130" text-anchor="middle" font-family="Georgia, serif" font-size="22" fill="#1F4F43" font-weight="700">Good Dog</text>
  <text x="160" y="158" text-anchor="middle" font-family="Arial, sans-serif" font-size="13" fill="#5A6B62">Rabbit Jerky</text>
  <text x="160" y="180" text-anchor="middle" font-family="Arial, sans-serif" font-size="12" fill="#5A6B62">Novel protein · 150 g</text>
  <path d="M110 200c20-8 40 6 55-2 18-10 30 4 45-6" stroke="#A86828" stroke-width="8" stroke-linecap="round"/>
  <path d="M115 220c22-6 38 8 52 0 16-8 28 6 40-4" stroke="#C47A2C" stroke-width="7" stroke-linecap="round"/>
  <path d="M120 238c18-5 36 5 50-1 14-6 26 4 38-3" stroke="#A86828" stroke-width="6" stroke-linecap="round"/>
  <text x="160" y="305" text-anchor="middle" font-family="Arial, sans-serif" font-size="12" fill="#E4F0EB">Break into pieces</text>
</svg>
